# xmcd
#
# Track frame offsets: 
#        150
#        11780
#        25204
#        38007
#        49768
#        65093
#        80758
#        103386
#        119203
#        136713
#        156065
#        178466
#        203996
#        216638
#
# Disc length: 3300 seconds
#
# Revision: 2
# Processed by: cddbd v1.5.2PL0 Copyright (c) Steve Scherf et al.
# Submitted via: ExactAudioCopyFreeDBPlugin 1.0
#
DISCID=db0ce20e
DTITLE=B.B. King - Everyday I Have The Blues [CD1]
DYEAR=1998
DGENRE=Blues
TTITLE0=I Never Heard A Man
TTITLE1=Army Of The Lord
TTITLE2=I'M Working On The Building
TTITLE3=Payin'  The Cost To Be The Boss
TTITLE4=How Blue Can You Get
TTITLE5=The Letter
TTITLE6=Everyday I Have The Blues
TTITLE7=Long Nights
TTITLE8=That Evil Child
TTITLE9=Sweet Sixteen
TTITLE10=The Thrill Is Gone
TTITLE11=Guess Who
TTITLE12=Please Love Me
TTITLE13=Outside Help
EXTD=
EXTT0=
EXTT1=
EXTT2=
EXTT3=
EXTT4=
EXTT5=
EXTT6=
EXTT7=
EXTT8=
EXTT9=
EXTT10=
EXTT11=
EXTT12=
EXTT13=
PLAYORDER=
